<?xml version="1.0" standalone="no"?>
<!DOCTYPE svg PUBLIC "-//W3C//DTD SVG 20010904//EN"
 "http://www.w3.org/TR/2001/REC-SVG-20010904/DTD/svg10.dtd">
<svg version="1.0" xmlns="http://www.w3.org/2000/svg"
 width="1080.000000pt" height="1080.000000pt" viewBox="0 0 1080.000000 1080.000000"
 preserveAspectRatio="xMidYMid meet">
<metadata>
Created by potrace 1.14, written by Peter Selinger 2001-2017
</metadata>
<g transform="translate(0.000000,1080.000000) scale(0.100000,-0.100000)"
fill="#000000" stroke="none">
<path d="M1 9243 l2 -1558 17 505 c10 278 20 611 24 740 9 313 13 358 38 371
12 7 90 10 205 8 l186 -3 -6 -268 -5 -268 49 -21 c52 -23 63 -39 27 -39 -13
-1 -36 -6 -52 -13 l-29 -13 -5 -199 c-2 -110 -7 -206 -11 -213 -11 -19 -40 28
-62 98 -12 38 -18 47 -18 29 -1 -45 56 -143 117 -201 180 -172 480 -214 797
-113 234 75 656 336 911 562 53 47 157 149 232 227 531 548 666 674 1050 974
319 251 644 422 905 477 80 17 238 19 323 4 110 -19 234 -67 335 -128 l31 -19
-118 -1 c-115 0 -284 -21 -352 -42 -50 -16 -33 -20 36 -8 58 10 313 -1 382
-17 20 -4 22 -3 10 5 -8 6 -37 14 -64 17 -44 6 -47 8 -26 16 38 14 233 1 350
-22 58 -12 116 -24 130 -26 49 -8 -31 24 -90 36 -116 24 -228 64 -314 111 -49
27 -99 49 -111 49 -12 0 -56 11 -96 24 -132 43 -237 58 -333 47 -47 -6 -104
-15 -127 -21 -79 -21 -50 -2 43 29 120 39 532 141 572 141 5 0 -8 -16 -30 -35
-50 -44 -28 -45 44 -1 124 75 278 102 532 93 288 -11 551 -64 826 -168 123
-46 311 -131 394 -178 19 -11 85 -44 145 -74 210 -103 328 -191 515 -383 151
-156 302 -354 392 -518 54 -98 148 -320 148 -350 0 -7 28 -30 63 -52 156 -96
273 -253 358 -481 47 -129 77 -238 129 -477 40 -181 58 -248 59 -216 2 34 -82
419 -114 523 -18 61 -32 113 -30 115 6 6 73 -176 108 -293 20 -66 68 -226 106
-355 112 -377 239 -740 400 -1141 306 -767 418 -1015 793 -1759 300 -595 399
-806 598 -1260 115 -263 324 -764 378 -905 l31 -80 0 228 1 227 -70 0 c-61 0
-71 3 -84 23 -12 19 -201 457 -219 509 -6 17 7 18 183 18 l190 0 0 90 0 90
-199 0 -199 0 -6 117 c-5 94 -36 868 -59 1475 -2 53 -1 101 2 106 7 11 160 21
339 22 l122 0 0 85 0 85 -234 0 -234 0 -6 28 c-3 15 -8 106 -11 202 -3 96 -8
203 -11 238 l-6 62 251 0 251 0 0 280 0 280 -259 0 -258 0 -6 103 c-4 56 -10
189 -13 295 l-7 192 257 0 c196 0 258 -3 261 -12 3 -7 9 -71 13 -143 6 -82 10
574 11 1773 l1 1902 -5400 0 -5400 0 1 -1557z m7255 833 c3 -7 4 -40 2 -74
l-3 -61 -81 62 c-45 34 -90 67 -100 74 -16 10 -1 12 79 12 73 1 99 -2 103 -13z
m677 -275 c7 -233 6 -285 -5 -292 -7 -5 -72 -9 -145 -9 l-132 0 -43 51 c-24
28 -72 85 -107 126 -52 60 -66 83 -72 121 -10 59 -11 276 -2 286 4 3 117 5
252 4 l246 -3 8 -284z m582 279 c4 -6 9 -136 12 -290 l5 -280 -94 0 c-51 -1
-118 -2 -148 -4 -30 -2 -85 -1 -122 2 l-67 5 -5 71 c-3 39 -8 169 -11 289 l-6
217 215 0 c134 0 217 -4 221 -10z m639 -47 c3 -32 8 -163 12 -290 l6 -233
-220 0 c-258 0 -252 -3 -253 93 0 34 -2 76 -4 92 -2 17 -7 112 -11 213 l-7
182 236 0 235 0 6 -57z m1510 -40 c3 -54 7 -183 9 -288 l2 -190 -251 -3 -252
-2 -6 62 c-3 35 -8 146 -11 248 -3 102 -8 204 -11 228 l-5 42 259 0 260 0 6
-97z m-8656 -180 c-4 -136 -10 -263 -13 -280 l-6 -33 -254 0 c-248 0 -254 0
-260 21 -4 11 -4 139 0 285 l8 264 256 2 c141 2 261 0 266 -4 7 -4 7 -92 3
-255z m631 20 c0 -137 -4 -268 -7 -293 l-7 -45 -190 -1 c-104 -1 -205 1 -222
3 l-33 5 0 283 c0 217 3 285 13 288 6 3 110 6 230 6 l217 1 -1 -247z m667 76
l1 -165 -149 -127 -150 -128 -101 3 -102 3 -3 200 c-2 110 0 242 3 293 l7 92
246 -2 247 -3 1 -166z m424 163 c0 -5 -37 -34 -82 -65 -46 -31 -102 -70 -125
-88 -22 -17 -46 -28 -52 -25 -12 8 -16 168 -4 179 10 10 263 8 263 -1z m-3235
-179 c-3 -98 -8 -229 -11 -290 l-6 -113 -173 0 c-95 0 -187 3 -204 6 l-31 7 0
246 c0 135 3 263 6 284 l7 37 209 0 209 0 -6 -177z m7440 -573 c3 -5 9 -78 12
-161 l6 -151 -24 7 c-13 4 -24 8 -25 9 0 0 -13 33 -29 71 -15 39 -46 105 -67
147 -21 43 -38 80 -38 83 0 9 159 5 165 -5z m592 -3 c9 -10 29 -524 20 -533
-9 -9 -402 138 -424 160 -14 12 -21 355 -8 376 8 13 398 11 412 -3z m653 -20
c0 -12 11 -360 25 -772 13 -413 26 -815 27 -895 l3 -145 -75 -8 c-91 -10 -375
-5 -387 6 -4 5 -12 102 -16 217 l-9 208 96 316 c91 298 106 365 88 393 -4 6
-43 25 -87 43 -135 53 -121 15 -129 342 -4 157 -4 292 0 301 5 15 30 17 235
17 l229 0 0 -23z m1503 9 c8 -20 15 -150 47 -871 42 -948 42 -939 31 -954 -7
-11 -53 -13 -257 -9 l-249 5 -7 89 c-9 103 -68 1573 -68 1682 l0 72 249 0
c202 0 250 -3 254 -14z m-8695 -276 c1 -151 -1 -331 -5 -400 l-8 -124 -72 -56
c-88 -67 -292 -195 -392 -245 l-74 -37 6 239 c4 131 9 366 12 523 3 157 8 303
11 326 l5 41 67 2 c36 1 69 4 71 7 3 2 88 3 190 2 l186 -3 3 -275z m642 187
l0 -94 -57 -64 c-133 -151 -378 -389 -401 -389 -8 0 -5 533 3 598 l6 42 225 0
224 0 0 -93z m5760 -402 c498 -192 520 -201 520 -213 0 -5 -37 -7 -82 -4 -90
5 -52 -8 -618 214 -144 56 -263 109 -272 120 -10 11 -18 31 -18 44 0 20 3 23
18 15 9 -5 213 -84 452 -176z m34 -456 c30 -14 37 -30 29 -69 -6 -33 -18 -39
-26 -12 -3 9 -12 34 -21 55 -18 41 -18 42 18 26z m819 -1101 c4 -13 9 -146 13
-296 l7 -273 -148 3 -148 3 -39 100 c-63 161 -148 416 -148 445 0 15 3 30 7
33 3 4 106 7 229 7 222 0 222 0 227 -22z m49 -1270 c2 -43 1 -78 -2 -78 -5 0
-90 200 -90 212 0 4 17 8 38 10 35 3 37 1 43 -32 4 -19 9 -70 11 -112z"/>
<path d="M4855 10410 c-3 -6 1 -7 9 -4 18 7 21 14 7 14 -6 0 -13 -4 -16 -10z"/>
<path d="M4520 10110 c-8 -5 -10 -10 -5 -10 6 0 17 5 25 10 8 5 11 10 5 10 -5
0 -17 -5 -25 -10z"/>
<path d="M4331 10015 c-29 -19 -67 -37 -84 -41 -41 -9 -147 -73 -253 -153 -47
-36 -115 -87 -151 -112 -189 -136 -377 -311 -848 -787 -159 -162 -333 -331
-385 -376 -262 -226 -497 -375 -771 -491 -91 -38 -103 -41 -94 -22 4 6 0 4 -7
-5 -8 -9 -34 -24 -59 -32 -53 -19 -62 -20 -53 -4 5 8 2 9 -12 4 -10 -5 -31
-13 -46 -18 -16 -5 -25 -14 -22 -19 3 -5 -1 -9 -10 -9 -8 0 -16 5 -18 12 -3 8
-16 7 -49 -5 -73 -26 -222 -57 -245 -51 -12 3 -39 -2 -60 -12 -46 -21 -86 -26
-96 -11 -4 8 -13 5 -26 -6 -23 -21 -31 -21 -53 -1 -13 12 -26 14 -51 8 -18 -4
-37 -6 -43 -4 -26 9 -174 32 -205 32 -26 -1 -31 2 -20 9 12 8 10 10 -7 6 -13
-3 -23 -2 -23 2 0 8 -45 31 -58 31 -4 -1 4 -7 18 -15 42 -24 16 -17 -69 19
-258 111 -377 284 -358 519 8 97 24 140 70 195 l39 47 -45 -46 c-56 -57 -77
-121 -77 -234 0 -185 72 -325 221 -426 l58 -39 -5 -158 c-2 -86 -7 -203 -10
-259 l-6 -103 -203 0 c-153 0 -205 3 -208 13 -3 6 -6 -37 -6 -98 l-1 -110 205
3 205 4 0 -159 c0 -88 -3 -221 -7 -296 l-6 -137 -199 0 -198 0 0 -280 0 -280
191 0 192 0 -8 -257 c-4 -142 -9 -261 -12 -265 -2 -5 -85 -8 -184 -8 l-179 0
0 -85 0 -85 148 -2 c81 -1 162 -2 180 -3 31 0 32 -1 32 -45 0 -92 -40 -1488
-46 -1577 l-6 -93 -154 0 -154 0 0 -85 c0 -61 4 -85 13 -86 6 0 75 -1 152 -2
l140 -2 -3 -160 c-1 -88 -5 -211 -8 -272 l-6 -113 -144 0 -144 0 0 -1490 0
-1490 756 0 757 0 -7 58 c-40 333 -28 524 42 702 59 150 212 362 414 576 73
77 151 163 172 192 21 29 41 50 46 47 4 -2 13 -25 19 -49 7 -27 18 -47 28 -50
10 -2 66 -7 126 -11 90 -6 107 -10 107 -23 0 -10 -12 -95 -26 -190 l-27 -173
42 -137 c22 -75 41 -142 41 -148 0 -6 -30 -20 -67 -30 -93 -27 -102 -45 -78
-163 10 -47 23 -117 30 -156 24 -131 57 -270 67 -282 6 -7 8 -23 4 -35 -3 -13
-3 -47 1 -75 l6 -53 78 0 79 0 0 49 c0 28 3 52 8 54 4 3 115 -17 247 -45 132
-27 266 -52 298 -55 l57 -5 -1 63 c0 35 -4 103 -7 152 l-7 87 45 15 c25 7 110
33 190 55 80 23 159 46 175 51 43 14 704 200 742 209 21 5 36 4 42 -4 11 -13
171 -582 171 -608 0 -17 13 -18 205 -18 194 0 207 1 234 21 17 13 34 18 42 14
7 -5 10 -4 5 3 -3 6 38 38 99 77 58 37 105 71 105 76 0 5 -8 13 -18 17 -27 11
-132 86 -132 95 0 15 20 6 79 -35 l61 -42 47 17 c27 9 37 15 23 12 -80 -17
-85 -17 -75 -8 9 9 170 53 195 53 6 0 8 -6 4 -13 -4 -7 -3 -9 2 -4 5 5 9 14 9
20 0 13 -3 17 -65 88 -38 44 -56 100 -27 82 8 -4 65 -66 127 -138 63 -71 129
-146 147 -165 18 -19 40 -50 48 -67 9 -18 21 -33 26 -33 6 0 18 -7 26 -16 14
-13 32 -14 117 -9 56 4 128 9 161 10 73 4 75 4 50 15 -16 7 -16 9 -4 9 9 1 29
-5 44 -13 42 -22 15 -29 -134 -35 -75 -4 -142 -10 -148 -14 -7 -4 -21 -3 -31
2 -14 7 -24 6 -38 -4 -17 -13 17 -14 266 -15 215 0 289 3 299 13 11 9 13 9 7
0 -8 -15 39 -19 48 -4 3 5 28 14 55 21 39 9 49 16 48 31 -1 10 -4 19 -7 19 -3
0 -7 12 -8 26 -1 15 -7 33 -13 40 -8 10 -8 14 -1 14 11 0 52 -117 52 -146 0
-12 318 -14 2150 -14 l2150 0 0 1023 c0 885 -2 1026 -15 1051 -8 15 -12 32 -9
37 3 5 -3 9 -12 9 -10 0 -14 3 -11 7 4 3 1 13 -6 21 -9 13 -9 14 1 8 7 -4 12
-2 12 8 0 8 -9 18 -21 21 -16 5 -18 10 -8 21 6 8 8 15 3 15 -5 1 -15 2 -23 3
-8 0 -16 7 -19 15 -3 8 0 11 6 7 6 -3 14 -1 18 5 5 8 3 9 -6 4 -10 -6 -12 -4
-7 8 3 10 2 17 -3 17 -6 0 -10 -5 -10 -11 0 -5 -5 -7 -11 -3 -8 4 -9 0 -4 -15
3 -11 3 -21 -2 -21 -5 0 -10 12 -11 26 -1 19 4 27 18 31 11 3 20 6 20 7 -5 21
-39 108 -44 113 -3 3 -6 13 -6 20 0 24 -37 96 -70 138 l-32 40 -76 1 c-43 0
-124 4 -182 7 -58 4 -154 9 -215 13 -168 8 -197 12 -210 26 -7 7 -36 81 -64
163 -39 109 -61 157 -81 176 -33 31 -54 68 -70 129 -7 24 -20 62 -30 85 -21
45 -64 186 -62 198 1 4 -3 7 -9 7 -5 0 -8 4 -4 9 3 5 -2 17 -11 25 -8 9 -14
16 -11 16 2 0 -2 24 -10 52 -8 29 -16 61 -18 71 -6 25 -15 37 -28 37 -8 0 -8
-3 2 -9 8 -5 9 -11 3 -15 -8 -5 -9 -34 -2 -43 2 -2 4 -12 5 -23 1 -11 4 -23 5
-27 1 -5 2 -16 1 -25 -1 -10 2 -18 8 -18 6 0 8 -12 5 -30 -4 -17 -2 -30 3 -30
6 0 9 -12 7 -27 -2 -16 5 -86 16 -158 10 -71 22 -155 25 -185 3 -30 8 -71 10
-90 25 -210 27 -251 12 -274 -12 -17 -23 -22 -44 -20 -15 2 -149 5 -298 6
l-270 2 -26 30 c-19 23 -30 54 -43 125 -9 51 -23 105 -30 120 -8 14 -23 72
-35 128 -11 57 -27 117 -36 133 -9 17 -33 111 -55 208 -21 97 -45 197 -53 222
-8 25 -24 83 -35 130 -11 47 -38 153 -60 235 -22 83 -50 211 -62 285 -43 270
-73 429 -115 620 -24 107 -51 238 -60 290 -19 111 -55 262 -90 375 -51 164
-60 126 -20 -86 14 -74 30 -191 35 -261 5 -69 16 -157 25 -194 18 -77 90 -490
110 -634 23 -159 25 -170 65 -335 72 -299 113 -556 90 -570 -6 -4 -9 -13 -7
-19 4 -9 -8 -14 -36 -15 -23 -2 -47 -3 -54 -4 -21 -1 -3 -17 20 -18 18 -1 17
-2 -6 -9 -16 -5 -36 -7 -46 -5 -14 3 -17 -2 -14 -21 2 -13 5 -35 7 -48 2 -14
7 -30 11 -35 3 -6 -5 -15 -19 -21 -23 -9 -37 -40 -18 -40 4 0 8 -9 8 -20 0
-11 -3 -16 -7 -12 -26 29 -283 900 -373 1267 -213 860 -395 1803 -435 2245
-16 166 -13 475 4 620 21 173 30 392 18 414 -7 13 -12 -12 -17 -95 -4 -63 -18
-202 -32 -309 -35 -267 -30 -531 16 -895 26 -201 30 -256 21 -285 -12 -39 -76
-319 -121 -532 -64 -301 -106 -419 -299 -821 -75 -159 -127 -240 -256 -402
-105 -133 -164 -195 -230 -243 -27 -20 -88 -68 -135 -107 -146 -123 -225 -172
-400 -250 -121 -54 -291 -118 -297 -111 -2 2 13 17 33 32 118 90 357 407 519
689 62 107 235 453 235 470 0 5 -27 -37 -61 -95 -181 -313 -327 -498 -534
-676 -325 -281 -710 -460 -1115 -519 -119 -18 -504 -43 -552 -37 -23 4 -26 7
-17 23 5 10 22 22 37 25 45 10 250 121 336 182 103 72 336 304 450 447 97 122
228 315 300 443 115 203 208 404 395 847 5 12 40 42 78 67 68 46 203 178 203
199 0 6 -27 -17 -60 -50 -72 -72 -200 -159 -288 -195 -180 -75 -415 -83 -631
-21 -51 15 -95 25 -98 22 -10 -11 185 -66 273 -78 144 -19 334 0 437 43 26 12
50 18 54 15 12 -13 -186 -452 -305 -676 -80 -151 -90 -166 -127 -182 -41 -18
-65 -16 -30 3 11 6 37 28 58 48 44 44 51 95 17 125 -31 28 -114 46 -168 35
-124 -24 -283 -108 -539 -287 -106 -74 -197 -132 -203 -128 -5 3 -10 12 -10
20 0 18 -74 81 -121 103 -24 11 -43 29 -54 52 -9 19 -24 44 -33 55 -17 20
-188 138 -268 185 -23 14 -98 63 -166 108 l-123 84 -55 -5 c-54 -5 -125 -41
-255 -130 -22 -15 -45 -27 -52 -27 -6 0 -25 -11 -42 -25 l-30 -26 -21 23 c-12
13 -55 66 -94 118 -183 242 -260 415 -307 695 -15 94 -22 199 -29 485 -9 367
-16 522 -27 638 -7 78 8 81 31 5 10 -32 35 -94 55 -138 20 -44 43 -99 50 -123
8 -23 16 -41 18 -39 1 2 -2 71 -7 153 -6 82 -8 168 -4 191 5 38 10 42 50 58
25 9 63 19 85 22 l41 6 -20 -39 c-67 -131 -48 -391 37 -526 32 -50 103 -108
130 -107 13 0 12 2 -3 12 -71 44 -157 165 -143 201 9 22 62 46 117 53 l49 6
11 -44 c19 -75 21 -79 35 -79 7 0 27 23 45 50 42 65 74 66 143 2 34 -32 34
-40 -4 -88 -38 -48 -99 -91 -151 -104 -21 -6 -38 -15 -38 -20 0 -13 78 16 122
45 21 14 42 25 47 25 18 0 75 75 104 139 44 93 42 138 -11 226 -23 39 -53 82
-67 95 -38 35 -31 40 26 19 l51 -20 -6 33 c-3 18 -8 53 -12 78 l-6 45 23 -33
c19 -26 41 -39 97 -58 83 -28 169 -70 329 -160 62 -35 116 -64 122 -64 33 0
70 520 72 1004 0 126 4 225 8 220 4 -5 22 -76 40 -159 119 -545 237 -1015 262
-1040 7 -7 9 -5 5 5 -9 27 -66 269 -157 665 -102 440 -147 622 -159 644 -9 16
-17 -123 -25 -454 -7 -245 -31 -744 -41 -817 -3 -27 -9 -48 -12 -48 -4 0 -65
34 -136 74 -135 79 -264 138 -332 156 -39 9 -43 15 -72 78 -16 38 -51 135 -77
218 -25 82 -50 158 -55 169 -19 45 -10 -31 16 -125 40 -145 103 -404 100 -407
-2 -2 -43 15 -91 37 -48 22 -107 45 -131 51 -24 6 -48 16 -53 23 -16 20 -81
240 -106 362 -55 267 -59 637 -10 959 33 219 38 266 26 240 -109 -234 -260
-629 -246 -643 2 -3 8 4 11 14 53 145 188 481 196 489 8 7 9 4 4 -10 -13 -35
-35 -205 -46 -355 -6 -79 -13 -147 -16 -151 -2 -4 -16 -10 -31 -14 -28 -7
-155 -55 -162 -61 -15 -13 15 -13 65 -1 33 8 75 17 95 20 l35 5 12 -171 c12
-179 44 -360 86 -492 21 -66 22 -76 8 -69 -59 26 -152 54 -181 54 -28 0 -43 9
-77 45 -24 25 -54 64 -66 87 -21 40 -23 41 -26 18 -1 -14 6 -54 17 -90 11 -35
19 -65 18 -65 -3 -3 -90 -31 -107 -36 -15 -4 -17 18 -10 127 2 27 0 56 -5 64
-6 9 -4 11 4 5 10 -6 11 -3 2 12 -7 15 -6 25 5 42 9 12 16 38 17 57 1 19 4 34
8 34 4 0 10 19 14 43 4 23 16 71 27 105 11 35 17 66 14 69 -9 9 -150 -463
-175 -587 -68 -341 -80 -446 -76 -670 5 -257 31 -365 116 -477 l39 -52 -42
-12 c-58 -15 -143 -7 -176 18 -47 35 -74 121 -85 273 -9 131 -9 137 16 214 14
43 22 75 18 70 -4 -5 -25 -58 -45 -119 -21 -60 -53 -148 -71 -195 -44 -109
-140 -366 -170 -450 -37 -104 -133 -308 -184 -390 -26 -41 -70 -111 -98 -156
-128 -207 -264 -358 -367 -409 -79 -39 -126 -31 -151 28 -8 18 -14 25 -15 17
0 -27 39 -79 65 -86 14 -3 36 -3 50 0 14 4 25 2 25 -3 0 -5 -31 -132 -69 -283
-38 -150 -88 -353 -111 -451 -41 -175 -57 -211 -89 -205 -14 3 -16 32 -13 298
1 162 5 342 7 400 2 58 7 271 11 475 4 203 10 403 13 445 l6 75 65 7 c36 4
138 7 227 7 l163 -1 -6 -26 c-23 -110 -121 -436 -142 -475 -37 -70 -88 -125
-141 -152 -46 -24 -46 -24 -11 -18 137 22 306 341 496 933 159 496 228 759
388 1480 152 686 247 1013 426 1460 l82 205 141 143 c324 328 571 554 807 738
181 142 230 174 262 174 45 0 32 -30 -27 -58 -118 -58 -325 -200 -325 -223 0
-5 28 5 62 22 76 39 150 61 161 50 5 -5 -33 -54 -88 -112 -53 -57 -104 -117
-112 -134 -34 -66 -107 -181 -128 -205 -46 -49 -241 -338 -298 -441 -81 -146
-67 -158 18 -14 232 395 495 698 747 862 136 88 189 91 302 15 81 -54 121 -93
178 -177 23 -33 69 -96 102 -140 39 -52 104 -166 184 -325 68 -135 128 -250
134 -257 6 -8 6 -19 -1 -32 -22 -40 -45 -21 284 -228 88 -55 213 -133 278
-173 64 -40 117 -76 117 -79 0 -4 -25 -65 -56 -137 -31 -71 -83 -199 -116
-284 -33 -85 -64 -159 -68 -164 -5 -4 -51 122 -104 280 -88 266 -183 515 -204
536 -6 6 -12 3 -15 -6 -4 -9 -2 -15 3 -13 12 2 50 -103 175 -478 51 -154 96
-289 100 -299 7 -17 5 -18 -16 -12 -13 4 -87 21 -164 38 -77 17 -143 34 -147
38 -5 3 -1 55 7 115 9 61 17 200 20 310 3 165 2 183 -5 100 -44 -483 -84 -718
-176 -1015 -74 -236 -158 -428 -246 -558 -27 -41 -48 -76 -45 -78 5 -5 84 103
134 181 72 114 202 483 259 735 14 63 28 118 31 123 5 9 29 6 228 -25 72 -11
133 -23 138 -27 4 -4 -6 -40 -23 -81 -16 -40 -30 -79 -30 -86 0 -8 33 -31 74
-51 l75 -37 49 -140 c87 -245 128 -386 114 -386 -5 0 -42 11 -83 25 -79 27
-99 44 -99 84 0 38 -21 151 -29 151 -3 0 -19 -33 -34 -73 -42 -109 -32 -102
-149 -99 -166 5 -298 -32 -391 -109 -20 -17 -95 -92 -164 -167 -117 -126 -125
-137 -102 -140 44 -5 132 35 244 113 60 41 111 73 113 70 3 -2 -1 -26 -9 -52
-53 -192 47 -467 195 -534 78 -35 88 -16 11 21 -24 12 -58 37 -75 57 -41 46
-75 116 -67 137 10 25 69 46 138 49 l61 2 22 -60 c12 -36 28 -61 37 -63 10 -2
34 17 60 47 23 28 50 51 59 51 37 0 109 -33 139 -63 l31 -33 -47 -47 c-53 -54
-132 -96 -193 -104 -22 -3 -43 -10 -47 -16 -6 -10 25 -8 122 8 21 3 16 0 -15
-12 -60 -21 -244 -22 -318 -1 -29 9 -50 12 -45 7 4 -4 37 -16 73 -26 78 -21
223 -23 298 -4 41 10 56 11 67 1 12 -10 15 -9 15 9 0 13 15 30 41 48 35 23 43
25 61 14 20 -12 21 -11 15 18 -4 16 -2 33 3 36 6 3 10 11 10 18 0 6 -15 -3
-32 -19 -47 -43 -60 -52 -101 -69 -50 -21 -47 -3 3 20 59 27 132 110 175 200
35 72 39 89 44 185 3 71 7 95 12 75 16 -73 10 -142 -25 -265 l-7 -25 20 25 21
25 0 -41 c0 -87 -183 -318 -352 -442 -101 -74 -190 -120 -355 -183 -14 -5 -24
-12 -21 -15 3 -2 45 10 94 27 254 89 447 240 597 466 l67 100 0 154 c0 237
-41 439 -154 760 l-55 157 40 -16 c24 -9 43 -12 48 -6 13 14 99 211 214 488
57 137 107 251 113 253 5 2 128 -93 273 -210 361 -291 334 -272 373 -261 30 9
38 20 85 124 29 63 52 118 53 121 1 13 -368 325 -555 470 -88 67 -106 86 -102
103 3 12 31 86 62 166 46 121 165 461 165 474 0 5 -209 156 -226 163 -40 15
-89 -85 -260 -539 -16 -43 -33 -78 -37 -78 -5 0 -27 13 -50 29 -84 57 -575
341 -590 341 -3 0 -32 -38 -65 -85 -58 -84 -59 -85 -70 -59 -7 13 -12 29 -12
35 0 6 -17 47 -38 92 -64 138 -70 148 -108 202 -12 17 -24 42 -27 56 -4 14
-21 45 -40 70 -18 24 -38 56 -44 71 -7 14 -28 47 -47 73 -20 26 -36 52 -36 58
0 7 -23 36 -50 65 -28 29 -50 57 -50 63 0 5 -29 38 -64 72 -35 34 -68 72 -74
84 -17 31 -114 111 -142 117 -41 7 -82 26 -78 35 2 4 13 21 25 37 12 16 41 53
63 82 22 28 39 52 38 52 -2 0 -27 -16 -57 -35z m1909 -931 c78 -57 110 -94 81
-94 -4 0 -18 -28 -30 -62 -13 -35 -41 -110 -63 -168 -55 -142 -137 -393 -132
-402 3 -4 37 -32 77 -62 40 -30 108 -85 152 -123 44 -37 114 -95 155 -128 113
-89 280 -235 280 -245 0 -5 -3 -10 -7 -12 -12 -5 -83 -145 -83 -163 0 -20 -10
-18 -41 8 -125 106 -353 285 -474 372 -117 84 -148 103 -158 93 -7 -7 -23 -44
-36 -83 -13 -38 -45 -122 -71 -185 -26 -63 -82 -199 -125 -302 -42 -102 -82
-194 -88 -203 -11 -14 -24 -10 -127 40 -63 31 -117 58 -119 60 -2 2 40 104 92
227 108 253 193 456 212 508 7 19 20 51 29 72 l16 36 -178 110 c-97 60 -251
151 -342 202 -91 51 -171 98 -178 104 -10 10 0 31 47 104 33 51 64 99 71 107
13 15 72 -17 457 -251 113 -68 209 -124 213 -124 4 0 51 109 105 243 143 357
156 387 166 387 5 0 50 -30 99 -66z m-3406 -420 c-36 -91 -44 -98 -44 -39 0
42 5 54 32 82 17 18 33 31 35 29 2 -2 -8 -34 -23 -72z m-215 -371 c-1 -195 -3
-225 -25 -307 -13 -50 -47 -179 -75 -286 -27 -107 -54 -205 -59 -217 -9 -22
-13 -23 -160 -23 l-150 0 -1 63 c0 59 4 538 6 622 0 39 2 40 125 125 69 47
170 120 225 162 55 42 104 76 108 77 4 1 7 -96 6 -216z m-651 -505 c-3 -161
-8 -301 -12 -310 -7 -16 -25 -18 -161 -18 -83 0 -200 3 -258 7 l-107 6 0 206
0 206 187 64 c102 35 218 78 257 96 39 18 77 34 85 34 11 1 12 -50 9 -291z
m-13 -550 c3 -18 4 -150 3 -293 l-3 -260 -274 -3 -274 -2 6 272 c3 150 9 281
12 290 9 24 23 25 287 27 l237 1 6 -32z m431 15 c-38 -130 -160 -525 -168
-545 -9 -24 -16 -28 -50 -28 l-41 0 7 286 c4 158 9 291 12 295 3 5 59 9 125 9
110 0 120 -2 115 -17z m-76 -454 c-95 -414 -189 -751 -334 -1189 -66 -202
-146 -414 -152 -407 -8 7 98 396 201 737 57 190 142 478 190 640 114 390 146
493 151 487 2 -2 -23 -123 -56 -268z m1018 -62 c4 -33 -22 -47 -45 -24 -22 21
-8 59 20 55 16 -2 23 -11 25 -31z m87 -27 c3 -5 19 -7 35 -3 16 3 41 2 56 -1
22 -6 25 -11 19 -33 -11 -45 -98 -166 -108 -152 -14 19 -67 181 -62 189 8 13
52 13 60 0z m231 -55 c8 -20 -42 -95 -63 -95 -17 0 -63 37 -63 52 0 13 74 57
98 57 12 1 25 -6 28 -14z m1582 -117 c19 -19 14 -56 -8 -63 -41 -13 -69 43
-32 64 22 13 26 13 40 -1z m228 -69 l26 -9 -40 -48 c-22 -26 -52 -58 -66 -71
l-25 -24 -36 78 c-19 43 -35 82 -35 88 0 12 137 1 176 -14z m166 -38 c-3 -29
-37 -77 -64 -92 -16 -9 -27 -5 -59 17 -21 15 -39 33 -39 40 0 7 24 21 53 32
28 11 59 22 67 25 28 11 45 2 42 -22z m-2852 -188 c-1 -168 -3 -204 -13 -188
-19 31 -11 395 9 395 2 0 4 -93 4 -207z m-837 -313 c-2 -162 -5 -204 -22 -261
-12 -37 -28 -70 -37 -73 -8 -3 -121 -6 -249 -6 l-234 0 -6 43 c-3 23 -4 69 -1
102 2 33 5 133 5 222 l1 163 218 2 c119 2 242 3 272 2 l55 0 -2 -194z m655
-30 c37 -73 66 -93 134 -91 l55 1 12 -218 c22 -381 45 -590 97 -861 14 -73 23
-135 21 -138 -3 -2 -12 3 -21 12 -20 21 -56 11 -56 -16 0 -10 5 -19 10 -19 6
0 10 -10 10 -22 0 -13 9 -41 19 -63 10 -22 19 -43 20 -47 6 -24 14 -46 26 -68
7 -14 23 -55 35 -90 12 -36 37 -96 55 -135 56 -121 67 -147 63 -150 -7 -7
-142 98 -190 148 -138 140 -240 344 -301 602 -49 205 -58 293 -63 635 -5 310
-12 385 -25 295 -24 -160 -20 -520 8 -744 13 -112 74 -345 113 -437 23 -54 44
-105 47 -112 4 -8 -2 -11 -18 -8 -13 2 -33 -4 -43 -13 -11 -9 -17 -11 -14 -6
3 6 -4 19 -15 29 -17 16 -19 17 -14 3 11 -30 -2 -18 -23 21 -12 20 -19 28 -16
17 5 -17 4 -18 -6 -5 -18 22 -43 19 -43 -5 0 -11 -4 -20 -10 -20 -5 0 -17 -4
-25 -10 -13 -8 -13 -7 -1 8 10 12 10 17 2 17 -7 0 -19 7 -28 15 -12 12 -18 13
-29 4 -8 -6 -14 -17 -14 -23 0 -6 7 -3 14 6 12 16 14 16 24 -7 7 -15 8 -25 2
-25 -6 0 -10 7 -10 16 0 13 -3 14 -15 4 -8 -6 -19 -9 -25 -5 -5 3 -10 1 -10
-6 0 -7 -6 -4 -14 7 -8 10 -12 29 -9 42 3 13 1 22 -6 22 -6 0 -14 1 -18 3 -3
1 -7 -8 -8 -20 -1 -13 2 -23 7 -23 5 0 6 -5 3 -10 -3 -6 0 -13 9 -16 18 -7 10
-34 -11 -34 -8 0 -12 -4 -8 -9 3 -5 1 -12 -5 -16 -6 -3 -13 1 -17 11 -8 21 14
374 27 429 5 22 12 90 15 150 22 411 46 650 75 726 20 53 135 266 158 292 18
21 16 23 50 -43z m-312 -486 c-9 -23 -23 -161 -41 -389 -17 -228 -58 -569 -80
-665 -8 -36 -20 -126 -26 -200 -6 -74 -15 -142 -20 -151 -4 -9 -11 -54 -14
-100 -3 -46 -10 -102 -15 -124 -5 -22 -11 -74 -13 -117 -3 -42 -8 -82 -13 -89
-4 -7 -11 -45 -15 -83 -14 -123 -40 -279 -55 -326 -8 -25 -14 -59 -14 -77 0
-17 -4 -34 -9 -37 -5 -3 -11 -23 -14 -43 -8 -51 -23 -121 -34 -158 -6 -16 -8
-36 -6 -43 3 -7 -2 -23 -10 -36 -9 -12 -17 -36 -19 -51 -2 -22 -10 -31 -32
-36 -37 -10 -242 -7 -252 4 -9 9 -13 114 -15 467 -1 193 4 305 25 530 28 307
59 568 75 640 11 48 14 76 7 69 -5 -5 -25 -87 -77 -319 -16 -74 -40 -162 -53
-195 -23 -58 -41 -143 -85 -385 -12 -63 -25 -135 -31 -160 -5 -25 -21 -124
-35 -220 -14 -96 -30 -195 -35 -220 -5 -25 -15 -84 -22 -132 l-12 -88 -53 0
c-53 0 -53 0 -54 33 -1 32 -1 32 -10 -7 -5 -22 -12 -42 -16 -45 -11 -11 9 106
43 249 20 80 53 224 75 320 22 96 64 276 94 400 30 124 86 358 125 520 39 162
83 344 98 404 l27 109 67 44 c145 96 292 290 512 676 26 45 45 64 32 31z
m5228 -179 c-12 -57 -165 -515 -213 -637 -149 -375 -348 -715 -541 -924 -57
-62 -67 -63 -21 -2 23 29 41 57 41 62 0 5 6 17 14 25 7 9 57 100 110 204 53
103 110 209 125 235 30 48 151 397 151 435 0 11 27 72 61 136 73 139 151 328
210 509 l43 132 13 -72 c7 -40 10 -86 7 -103z m-4373 -295 c7 -41 18 -104 25
-140 l13 -64 -49 -52 c-48 -50 -50 -55 -50 -109 0 -48 28 -178 44 -204 3 -4
-5 -39 -18 -77 l-23 -68 -18 47 c-16 42 -17 69 -12 235 5 162 32 442 54 552
l6 35 8 -40 c4 -22 13 -74 20 -115z m677 96 c26 -13 74 -44 107 -68 64 -46
106 -74 280 -187 61 -39 118 -82 127 -94 30 -42 68 -148 84 -236 9 -47 21 -95
27 -106 10 -18 12 -17 17 15 5 34 6 33 50 -58 25 -50 48 -92 52 -92 13 0 21
47 23 140 l1 95 190 133 c352 248 540 327 659 278 23 -10 37 -24 41 -42 6 -25
1 -34 -51 -80 -32 -29 -70 -58 -84 -66 -14 -7 -28 -15 -31 -18 -3 -3 -34 -28
-70 -55 -179 -135 -395 -337 -613 -572 -78 -85 -143 -149 -145 -144 -2 5 11
43 29 83 24 53 34 92 37 143 2 39 2 68 -1 65 -3 -3 -13 -36 -22 -74 -8 -39
-31 -104 -50 -146 -19 -41 -41 -102 -50 -135 -29 -115 -190 -450 -308 -645
-35 -58 -119 -184 -188 -280 -69 -96 -139 -197 -156 -225 l-32 -50 -380 -4
-381 -3 -2 38 c-15 337 136 745 576 1564 123 230 230 432 235 445 2 6 -16 -11
-40 -37 l-44 -48 -75 15 c-41 8 -78 15 -81 15 -3 0 -27 -27 -53 -60 -49 -62
-70 -73 -81 -41 -3 10 -15 27 -27 37 l-21 19 16 -25 c8 -14 29 -70 47 -125 36
-111 36 -179 2 -225 -31 -41 -54 -37 -108 21 -27 28 -77 81 -111 116 -57 59
-83 106 -83 151 0 38 169 299 246 379 44 47 55 53 90 53 55 0 257 -26 392 -51
130 -25 168 -45 233 -129 45 -57 58 -70 73 -70 26 0 -98 145 -149 175 -45 27
-231 67 -398 86 -67 7 -106 16 -104 23 4 11 122 88 172 111 44 21 79 18 133
-9z m4077 -176 l17 -69 -31 -53 c-17 -29 -43 -66 -57 -83 -27 -32 -27 -31 -1
27 26 57 47 147 47 200 0 26 2 48 4 48 2 0 12 -31 21 -70z m-4689 -204 c-31
-46 -61 -96 -68 -110 -17 -40 -28 -31 -28 23 0 34 6 56 21 76 26 32 120 108
126 101 3 -3 -20 -43 -51 -90z m2224 -23 c0 -5 -28 -53 -63 -108 -47 -74 -68
-100 -82 -99 -31 2 -169 27 -175 31 -5 5 36 40 115 97 70 51 205 103 205 79z
m2243 -59 c5 -27 1 -44 -12 -63 -10 -14 -42 -69 -71 -121 -70 -125 -141 -229
-197 -288 l-45 -47 35 45 c83 109 126 180 152 250 16 41 44 109 63 150 19 41
38 85 43 98 12 31 25 21 32 -24z m-3223 -1 c95 -63 124 -128 114 -256 -4 -43
-10 -74 -14 -70 -4 4 -18 40 -30 78 -12 39 -31 83 -42 98 -21 31 -70 167 -59
167 4 0 18 -7 31 -17z m-766 -23 c5 -5 -2 -27 -15 -51 -22 -40 -28 -44 -84
-56 -93 -19 -105 -17 -105 13 0 16 15 45 37 72 l36 44 61 -7 c34 -3 65 -10 70
-15z m4275 -129 c-60 -84 -104 -134 -134 -153 -16 -10 -24 -18 -16 -18 7 0 53
39 102 87 49 47 92 84 95 80 4 -4 22 -62 41 -129 33 -119 34 -130 39 -349 l4
-227 -22 -6 c-13 -3 -123 -6 -245 -6 -284 0 -263 -15 -263 188 0 81 -3 194 -7
252 l-5 105 66 134 c37 73 70 131 73 128 10 -11 -30 -152 -64 -225 -19 -41
-33 -76 -30 -78 7 -8 74 127 93 188 9 31 23 59 31 62 19 8 16 -15 -12 -90 -14
-36 -25 -70 -25 -75 0 -11 29 0 58 22 16 12 33 16 51 13 23 -5 33 0 60 33 17
21 51 76 74 122 l42 83 13 -47 c14 -47 13 -48 -19 -94z m-2741 -12 c28 -6 52
-14 52 -18 0 -15 -154 -210 -189 -239 -8 -6 -22 -10 -30 -8 -9 3 -68 7 -131
11 -63 4 -117 9 -119 11 -6 6 57 70 172 176 l99 90 46 -6 c26 -4 71 -11 100
-17z m-2643 -59 c-3 -5 -14 -10 -23 -9 -14 0 -13 2 3 9 27 11 27 11 20 0z
m113 -8 c2 -7 -1 -12 -8 -12 -6 0 -9 4 -6 9 4 5 1 12 -4 14 -6 3 -5 4 2 3 6
-1 14 -8 16 -14z m-233 -2 c-3 -5 -14 -10 -23 -9 -14 0 -13 2 3 9 27 11 27 11
20 0z m145 -4 c0 -2 -7 -7 -16 -10 -8 -3 -12 -2 -9 4 6 10 25 14 25 6z m651
-99 c22 -27 39 -55 39 -63 0 -21 -61 -44 -114 -44 -63 0 -74 21 -51 104 10 33
22 69 27 79 9 18 11 18 35 -5 14 -12 43 -45 64 -71z m-547 51 c-3 -4 -10 -8
-15 -8 -6 0 -7 5 -4 10 3 6 0 10 -7 10 -10 0 -9 3 2 10 15 9 33 -7 24 -22z
m31 -27 c3 -5 0 -13 -6 -17 -8 -5 -9 -3 -4 6 6 9 1 10 -16 5 -19 -5 -21 -4 -9
4 19 13 27 14 35 2z m24 -34 c8 -10 7 -14 -2 -14 -8 0 -14 6 -14 14 0 7 1 13
2 13 2 0 8 -6 14 -13z m56 -57 c10 -11 16 -20 13 -20 -3 0 -13 9 -23 20 -10
11 -16 20 -13 20 3 0 13 -9 23 -20z m570 -48 c58 -10 58 -40 3 -139 -24 -43
-64 -117 -88 -165 -25 -49 -48 -88 -53 -88 -4 0 0 11 9 25 16 25 11 32 -20 26
-5 -1 -4 5 4 13 15 19 24 21 14 4 -4 -7 -3 -8 4 -4 18 11 3 35 -19 31 -14 -3
-19 1 -17 13 2 10 -3 16 -11 14 -16 -3 -33 17 -25 30 3 4 19 8 35 8 21 0 28
-4 23 -12 -4 -7 2 -5 12 6 14 13 15 20 7 23 -7 3 -13 8 -13 13 0 5 -23 46 -51
92 l-50 83 57 7 c31 4 67 14 78 23 12 8 30 12 41 9 11 -3 38 -9 60 -12z m1553
2 c56 -4 102 -10 102 -15 0 -5 -27 -36 -59 -69 l-59 -60 -118 0 c-115 0 -121
-1 -167 -30 -64 -41 -68 -56 -25 -95 19 -18 43 -37 53 -42 20 -12 12 -33 -13
-33 -9 0 -41 23 -71 50 l-54 49 43 48 c24 26 79 86 122 131 73 78 82 84 111
79 18 -4 78 -9 135 -13z m-1908 -141 c0 -7 -39 17 -46 28 -3 6 5 3 20 -6 14
-10 26 -19 26 -22z m4359 -60 c1 -55 -7 -65 -30 -37 -7 8 -28 23 -47 33 l-35
18 24 21 c13 11 35 29 49 40 l25 20 7 -21 c3 -12 6 -46 7 -74z m-4329 42 c11
-13 10 -14 -4 -9 -9 3 -16 10 -16 15 0 13 6 11 20 -6z m135 -57 c5 4 5 1 1 -5
-10 -18 -23 -16 -30 3 -5 13 -4 14 7 6 8 -7 18 -8 22 -4z m4065 -8 c0 -5 -2
-10 -4 -10 -3 0 -8 5 -11 10 -3 6 -1 10 4 10 6 0 11 -4 11 -10z m-18 -32 c-10
-10 -44 0 -37 12 3 5 14 6 26 3 12 -3 17 -9 11 -15z m68 -13 c14 -16 10 -18
-14 -9 -9 3 -16 10 -16 15 0 14 16 11 30 -6z m-78 -11 c53 -15 81 -38 83 -67
0 -4 13 -23 28 -42 15 -19 25 -35 22 -35 -3 0 -35 25 -72 54 -36 30 -81 62
-99 71 -19 9 -34 20 -34 25 0 13 4 13 72 -6z m-91 -45 c7 -18 24 -45 37 -61
13 -16 22 -32 18 -35 -10 -10 -61 12 -59 25 2 6 -14 25 -34 41 -36 30 -37 31
-18 46 30 22 41 18 56 -16z m-1534 -69 c6 -14 22 -51 34 -83 13 -33 42 -79 68
-107 47 -49 143 -120 165 -120 7 0 17 17 22 38 9 36 11 37 62 43 29 4 114 10
188 13 l134 6 63 -31 c75 -38 72 -36 60 -51 -6 -7 -18 -37 -27 -65 -10 -29
-21 -54 -24 -57 -4 -2 -68 5 -142 15 -74 10 -177 21 -229 25 -82 6 -94 9 -99
27 -5 18 -11 19 -86 14 -45 -4 -148 -22 -230 -41 -134 -32 -163 -43 -300 -114
-95 -50 -264 -154 -456 -284 -168 -112 -352 -231 -410 -264 -102 -57 -107 -59
-179 -59 -93 0 -106 14 -67 71 32 47 32 57 4 112 l-23 44 34 28 c19 16 100 75
180 131 80 56 156 111 169 122 28 26 29 67 2 74 -10 3 -22 14 -25 24 -4 10
-11 19 -17 19 -10 0 35 58 85 110 13 14 82 62 153 107 128 81 129 81 224 93
176 21 365 75 555 158 81 36 95 36 112 2z m1360 -4 c-5 -14 -57 -21 -57 -7 0
14 31 30 47 24 8 -3 12 -11 10 -17z m53 -6 c24 -15 7 -19 -20 -5 -15 8 -19 14
-10 14 8 1 22 -3 30 -9z m-2565 -171 l40 1 -25 -20 c-14 -11 -30 -20 -37 -20
-6 0 -18 -3 -26 -6 -8 -3 -17 2 -21 13 -3 10 -9 24 -12 32 -5 11 -1 12 17 6
13 -4 42 -7 64 -6z m180 -42 c-113 -82 -112 -81 -125 -58 -6 12 -7 21 -3 21 5
0 32 18 62 40 39 29 63 40 89 40 l36 0 -59 -43z m2692 -11 l72 -36 3 -196 c2
-108 0 -201 -4 -207 -6 -9 -12 -9 -25 1 -10 7 -38 22 -63 33 -25 11 -52 24
-60 29 -30 20 -66 32 -103 36 -21 2 -43 7 -49 10 -7 5 -9 -1 -5 -15 3 -14 0
-24 -8 -27 -16 -6 -69 17 -105 47 l-25 20 43 -6 c38 -6 42 -5 42 14 0 14 -13
26 -47 40 -82 35 -77 25 -74 150 2 130 8 141 73 141 38 0 50 -6 101 -53 l58
-54 -7 56 -6 56 59 -1 c46 -1 74 -9 130 -38z m764 7 c3 -18 8 -142 10 -275 l4
-243 -261 -3 -261 -2 -6 82 c-9 110 -9 463 0 472 4 3 119 5 257 4 l250 -3 7
-32z m-6734 5 c-3 -8 -6 -5 -6 6 -1 11 2 17 5 13 3 -3 4 -12 1 -19z m5374 -55
c1 -78 0 -105 -6 -111 -2 -2 -27 4 -55 12 -29 9 -62 14 -74 11 -14 -3 -32 5
-54 26 -40 36 -37 43 53 100 42 27 71 39 98 39 l37 0 1 -77z m654 66 c11 -17
0 -20 -21 -4 -17 13 -17 14 -2 15 9 0 20 -5 23 -11z m-2905 -71 c23 -38 26
-60 7 -52 -8 3 -36 -15 -63 -39 -44 -39 -231 -182 -261 -201 -9 -5 -11 -2 -7
8 3 8 38 39 77 69 75 57 95 73 164 137 32 30 38 40 26 44 -12 5 -13 9 -3 21
10 12 9 15 -4 15 -9 0 -16 -5 -16 -12 0 -6 -3 -8 -7 -5 -3 4 -17 0 -30 -8 -39
-26 -26 -9 19 24 53 39 73 39 98 -1z m3876 -242 c40 -126 62 -212 56 -218 -5
-5 -38 -8 -73 -6 l-64 3 -7 165 c-5 91 -5 199 -2 240 8 90 2 101 90 -184z
m129 174 c-11 -5 -27 -9 -35 -9 -9 0 -8 4 5 9 11 5 27 9 35 9 9 0 8 -4 -5 -9z
m-2651 -11 c14 0 7 -5 -19 -15 -159 -58 -414 -329 -568 -604 -43 -78 -71 -110
-97 -110 -10 0 -22 -4 -25 -10 -8 -13 -52 -13 -60 0 -4 6 -15 5 -30 -2 -17 -7
-28 -8 -37 -1 -15 12 -76 15 -82 4 -3 -4 -127 -9 -276 -10 -179 -1 -270 1
-266 8 4 5 73 51 154 102 81 50 197 126 257 167 347 238 361 246 535 343 117
64 376 142 449 134 24 -3 53 -5 65 -6z m2806 -21 c0 -19 -16 -5 -17 14 -2 18
0 20 7 8 5 -8 10 -18 10 -22z m-2625 -16 l40 -7 -55 -13 c-93 -21 -218 -90
-286 -157 -53 -53 -46 -49 33 21 49 43 182 104 279 128 l100 24 131 -19 c313
-44 587 -232 736 -505 53 -97 73 -163 113 -359 22 -112 26 -165 31 -375 3
-149 1 -285 -6 -345 -12 -115 -69 -316 -129 -455 -22 -52 -56 -135 -76 -184
-20 -50 -47 -106 -60 -125 -32 -47 -67 -143 -166 -451 -46 -140 -85 -262 -88
-270 -3 -8 -10 8 -17 35 -15 63 -54 163 -110 280 -39 82 -104 234 -133 310
-19 51 -52 183 -52 210 0 14 -5 34 -12 45 -10 15 -9 22 6 39 10 11 22 18 27
16 4 -3 11 1 16 8 12 20 69 57 77 50 3 -3 6 -2 6 4 0 12 76 61 153 98 31 16
57 33 57 38 0 6 3 7 7 4 3 -4 12 -2 20 4 17 15 17 34 0 23 -7 -5 -1 1 13 13
14 13 22 23 17 23 -4 0 0 14 8 30 9 17 20 28 25 25 5 -3 11 -1 14 4 5 8 -15 8
-34 1 -3 -1 -8 -2 -12 -1 -4 0 -5 -5 -2 -13 6 -16 -22 -41 -30 -27 -11 18 5
39 50 62 24 13 42 28 40 34 -2 5 3 22 10 36 7 15 10 30 6 34 -4 3 -2 6 3 5 21
-5 32 1 32 15 0 12 -3 12 -15 3 -11 -10 -11 -5 2 26 9 21 16 40 16 43 0 2 5 1
12 -3 7 -4 8 -3 4 4 -4 6 0 22 9 35 8 13 12 27 9 30 -6 6 43 87 53 87 2 0 1
-6 -3 -12 -6 -9 -3 -9 9 1 13 10 14 18 6 32 -7 13 -7 25 0 37 9 14 10 11 11
-15 0 -17 4 -34 9 -37 11 -7 21 94 14 137 -3 23 0 37 11 46 16 14 21 58 8 76
-4 6 -16 12 -27 13 -11 2 -24 8 -30 14 -7 6 -7 9 0 8 6 -2 18 -2 28 -1 23 1
12 21 -13 21 -10 0 -21 8 -24 17 -9 21 21 45 45 38 9 -3 19 1 22 9 3 8 1 16
-5 18 -6 2 4 36 27 83 21 44 44 97 51 119 16 44 18 184 4 206 -8 12 -10 10
-10 -11 0 -31 -19 -56 -45 -61 -11 -2 -21 -12 -23 -23 -13 -75 -68 -185 -94
-185 -5 0 -6 6 -3 13 4 6 -1 3 -9 -7 -9 -11 -16 -26 -16 -33 0 -7 -6 -12 -12
-10 -7 1 -12 -6 -12 -15 1 -11 -3 -15 -10 -11 -6 3 -6 0 2 -8 17 -19 15 -31
-5 -28 -31 3 -39 -1 -23 -11 13 -8 12 -10 -2 -10 -10 0 -18 -4 -18 -10 0 -5
-5 -10 -11 -10 -5 0 -7 6 -3 13 5 7 0 6 -11 -3 -11 -9 -16 -10 -11 -2 5 9 -3
12 -30 12 -21 0 -34 3 -31 7 4 3 20 6 37 5 21 0 36 8 56 31 15 18 35 35 45 39
12 5 16 13 12 29 -4 14 0 26 11 35 16 11 14 17 -26 67 -40 51 -49 57 -128 84
l-85 28 -540 0 c-297 0 -553 -4 -569 -8 l-28 -8 4 46 c2 25 2 45 0 45 -2 0
-10 -16 -18 -35 -8 -19 -19 -35 -24 -35 -13 0 -13 1 10 94 73 290 115 369 283
534 57 57 95 87 118 92 43 10 152 11 204 2z m2452 -8 c-3 -3 -12 -4 -19 -1 -8
3 -5 6 6 6 11 1 17 -2 13 -5z m-1789 -50 c29 -4 55 -11 59 -17 4 -6 -5 -8 -25
-4 -16 3 -45 2 -63 -3 -25 -7 -39 -6 -56 6 -28 18 -20 38 11 30 11 -3 45 -9
74 -12z m-2186 -51 c10 -9 18 -28 18 -44 0 -23 -13 -36 -96 -91 -53 -34 -117
-74 -143 -88 -26 -14 -60 -33 -74 -42 -15 -10 -39 -25 -54 -34 -26 -15 -27
-15 -8 0 95 78 121 106 142 153 18 38 41 65 87 101 35 28 72 52 82 55 10 2 21
5 23 6 3 0 13 -6 23 -16z m1077 -100 c-27 -37 -78 -126 -114 -197 -55 -114
-64 -141 -69 -205 -7 -80 -19 -106 -45 -95 -9 4 -42 10 -74 13 l-59 6 30 56
c95 181 330 489 373 489 5 0 -14 -30 -42 -67z m1646 4 c12 -10 14 -16 7 -21
-14 -8 -55 17 -45 27 9 10 17 9 38 -6z m-67 -81 c38 -19 74 -41 81 -50 12 -14
7 -16 -52 -16 -36 0 -69 5 -72 10 -3 6 -1 10 6 10 8 0 7 5 -3 18 -19 21 -41
62 -33 62 3 0 36 -15 73 -34z m-117 -23 c13 -15 12 -15 -8 -4 -24 12 -29 21
-14 21 5 0 15 -7 22 -17z m360 -14 c11 -5 17 -14 14 -20 -10 -16 -34 -10 -45
11 -12 23 -1 27 31 9z m-3324 -91 c18 -29 42 -68 54 -86 17 -25 18 -31 5 -26
-9 3 -16 2 -16 -4 0 -18 -128 -112 -152 -112 -20 0 -18 4 19 38 23 20 56 47
72 60 17 13 31 27 31 32 0 14 -61 100 -70 100 -5 0 -4 11 2 25 6 14 14 25 17
25 4 0 21 -24 38 -52z m3183 -113 c7 -9 8 -15 2 -15 -5 0 -12 7 -16 15 -3 8
-4 15 -2 15 2 0 9 -7 16 -15z m-4383 -150 c-26 -25 -47 -41 -47 -36 0 11 83
92 89 86 2 -3 -17 -25 -42 -50z m72 -92 c0 -82 4 -183 9 -225 l8 -76 -138 -46
c-76 -25 -144 -46 -152 -46 -21 0 -4 53 32 105 16 22 46 77 67 123 21 45 42
82 46 82 5 0 11 -11 15 -25 3 -14 9 -25 13 -25 7 0 37 63 67 140 14 35 14 35
-3 11 -10 -14 -25 -42 -33 -64 -8 -22 -21 -42 -27 -45 -18 -5 -17 48 1 73 7
11 17 34 20 51 7 32 55 114 67 114 4 0 7 -66 8 -147z m-238 -150 c-21 -43 -42
-89 -46 -103 -4 -13 -23 -48 -43 -77 -29 -44 -32 -55 -22 -68 10 -13 7 -17
-21 -29 -19 -8 -36 -13 -38 -11 -2 2 9 26 24 52 15 26 42 76 61 111 50 93 114
202 120 202 2 0 -13 -35 -35 -77z m-84 -55 c-13 -24 -50 -89 -81 -146 -48 -85
-63 -105 -93 -117 -19 -8 -39 -15 -44 -15 -5 0 12 30 39 68 26 37 61 87 77
111 31 46 113 141 122 141 3 0 -6 -19 -20 -42z m2780 -60 c-3 -8 -6 -5 -6 6
-1 11 2 17 5 13 3 -3 4 -12 1 -19z m1283 -125 c0 -2 -6 -11 -14 -18 -15 -15
-82 -10 -92 7 -3 4 -2 8 3 7 29 -5 83 3 78 11 -3 6 1 7 9 4 9 -3 16 -8 16 -11z
m-115 -83 c-3 -5 -15 -10 -26 -10 -10 0 -19 5 -19 10 0 6 12 10 26 10 14 0 23
-4 19 -10z m35 -5 c-7 -9 -15 -13 -17 -11 -7 7 7 26 19 26 6 0 6 -6 -2 -15z
m-90 -50 c0 -8 -7 -15 -16 -15 -14 0 -14 3 -4 15 7 8 14 15 16 15 2 0 4 -7 4
-15z m22 -37 c-7 -7 -16 -7 -28 0 -14 8 -13 10 10 10 18 0 24 -4 18 -10z m71
-98 c-3 -11 -15 -23 -27 -26 -25 -6 -76 11 -76 26 0 12 6 12 47 1 24 -7 35 -6
44 5 16 19 18 18 12 -6z m-1308 -10 c3 -5 1 -10 -4 -10 -6 0 -11 5 -11 10 0 6
2 10 4 10 3 0 8 -4 11 -10z m-39 -94 c-4 -21 -2 -36 4 -38 8 -2 8 -12 0 -33
-7 -17 -39 -104 -71 -194 -46 -128 -154 -379 -176 -410 -2 -3 -9 1 -15 7 -9 9
-9 15 0 24 7 7 12 20 12 30 0 10 17 56 39 101 43 94 94 230 111 297 35 141
116 325 96 216z m-3096 -93 c0 -22 -2 -25 -10 -13 -13 20 -13 40 0 40 6 0 10
-12 10 -27z m356 -105 c-20 -29 -247 -103 -258 -84 -11 16 -10 28 2 21 14 -8
231 54 250 71 21 20 23 17 6 -8z m3489 -95 c-3 -11 1 -10 17 2 25 17 42 20 33
5 -10 -17 5 -31 22 -21 17 9 26 4 63 -33 10 -10 23 -16 28 -12 5 3 17 0 26 -7
17 -12 17 -15 0 -53 -10 -21 -18 -44 -19 -50 -1 -19 -129 -187 -212 -278 -66
-73 -139 -135 -148 -124 -1 2 -26 41 -56 88 -29 47 -70 108 -90 135 -61 84
-92 143 -83 163 4 9 6 21 5 25 -1 5 3 6 9 2 6 -4 22 1 35 9 14 9 25 13 25 10
0 -4 9 1 20 11 11 10 20 24 20 31 0 7 16 22 35 34 19 12 35 25 35 29 0 3 10 8
23 9 12 1 31 4 42 6 11 2 25 0 30 -4 6 -5 30 2 55 13 52 26 93 30 85 10z
m-1888 -29 c-3 -3 -12 -4 -19 -1 -8 3 -5 6 6 6 11 1 17 -2 13 -5z m-38 -9 c-3
-2 -77 -27 -165 -54 -151 -47 -508 -158 -982 -305 -237 -74 -253 -77 -223 -45
12 13 54 31 103 44 46 13 137 39 203 58 66 20 239 70 385 112 146 43 355 103
465 135 200 58 223 64 214 55z m-104 -159 c0 -9 4 -15 10 -13 5 1 9 8 7 15 -2
10 6 8 30 -4 18 -10 38 -17 45 -16 6 1 14 -2 18 -8 3 -5 16 -10 28 -10 26 -1
-68 -30 -576 -182 -419 -124 -397 -122 -397 -37 l0 46 163 48 c89 26 270 81
402 120 237 72 270 77 270 41z m230 -16 c-3 -5 -14 -10 -23 -10 -15 0 -15 2
-2 10 20 13 33 13 25 0z m-2615 -302 c-22 -40 -44 -72 -48 -71 -5 1 -29 -19
-53 -45 -24 -25 -35 -39 -23 -29 11 9 23 14 27 11 3 -3 13 8 22 26 9 18 19 29
22 26 3 -3 -11 -33 -31 -66 -21 -33 -34 -65 -30 -72 5 -7 3 -8 -6 -3 -10 6
-12 4 -7 -9 4 -9 3 -15 -2 -12 -9 6 -25 -29 -35 -75 -3 -16 -23 -37 -53 -57
-27 -17 -82 -61 -123 -97 -41 -36 -104 -89 -140 -119 -36 -29 -86 -76 -112
-104 -27 -28 -48 -47 -48 -41 0 35 49 97 310 389 62 69 151 172 198 230 76 94
162 190 169 190 1 0 -16 -33 -37 -72z m1555 -243 c-66 -26 -96 -32 -78 -14 11
11 97 37 123 37 8 1 -12 -10 -45 -23z m2691 -76 c51 -102 198 -466 209 -516 6
-29 4 -33 -22 -39 -15 -4 -84 -8 -152 -8 l-125 -1 -79 90 c-100 113 -197 233
-197 246 0 5 6 9 13 9 24 0 83 64 83 90 0 14 4 25 9 26 23 2 45 17 45 32 0 8
2 13 5 10 3 -3 40 30 82 73 42 44 78 79 80 79 1 0 23 -41 49 -91z m-1401 55
c-9 -4 -176 -53 -252 -75 -50 -14 -105 -29 -138 -39 -45 -12 -1121 -323 -1337
-386 -104 -30 -194 -54 -201 -54 -19 0 -38 130 -22 150 23 28 24 49 8 145 -10
57 -13 99 -7 104 5 5 83 29 174 54 91 25 172 48 181 51 13 6 19 -11 37 -95 12
-56 28 -109 34 -117 9 -10 23 -12 52 -8 60 10 69 22 63 81 -5 49 -5 49 7 16 7
-19 21 -38 32 -41 15 -6 16 -8 4 -12 -8 -3 -5 -3 8 -1 45 7 122 -9 133 -28 7
-15 6 -17 -6 -13 -8 3 -13 9 -10 13 2 4 -2 8 -9 8 -19 0 -8 -35 13 -39 9 -2
72 11 141 29 508 135 972 251 1025 256 59 5 81 6 70 1z m-1405 -14 c0 -5 -5
-10 -11 -10 -5 0 -7 5 -4 10 3 6 8 10 11 10 2 0 4 -4 4 -10z m-23 -57 c-3 -10
-5 -4 -5 12 0 17 2 24 5 18 2 -7 2 -21 0 -30z m-1527 10 c-1 -20 -18 -33 -34
-27 -17 6 -16 8 5 20 29 16 29 16 29 7z m1890 -33 c0 -5 -4 -10 -10 -10 -5 0
-10 5 -10 10 0 6 5 10 10 10 6 0 10 -4 10 -10z m-353 -32 c-3 -8 -6 -5 -6 6
-1 11 2 17 5 13 3 -3 4 -12 1 -19z m443 -22 c0 -3 -4 -8 -10 -11 -5 -3 -10 -1
-10 4 0 6 5 11 10 11 6 0 10 -2 10 -4z m1705 -358 c19 -13 35 -26 35 -29 0 -3
-32 -27 -71 -54 -40 -26 -70 -41 -67 -34 21 53 61 139 64 139 3 0 20 -10 39
-22z m-225 -123 c-6 -15 -13 -25 -16 -23 -2 3 1 17 7 32 16 34 23 27 9 -9z"/>
<path d="M2781 4744 c0 -11 3 -14 6 -6 3 7 2 16 -1 19 -3 4 -6 -2 -5 -13z"/>
<path d="M2830 4660 c0 -5 7 -10 16 -10 8 0 12 5 9 10 -3 6 -10 10 -16 10 -5
0 -9 -4 -9 -10z"/>
<path d="M1231 2774 c0 -11 3 -14 6 -6 3 7 2 16 -1 19 -3 4 -6 -2 -5 -13z"/>
<path d="M3640 4998 c0 -16 11 -38 26 -53 47 -47 42 -8 -6 55 l-20 25 0 -27z"/>
<path d="M3390 4862 c0 -17 22 -72 29 -72 17 0 43 28 37 39 -10 15 -66 44 -66
33z"/>
<path d="M7585 4150 c-3 -6 1 -7 9 -4 18 7 21 14 7 14 -6 0 -13 -4 -16 -10z"/>
<path d="M5676 3344 c-44 -16 -65 -31 -27 -19 13 4 42 9 64 11 23 2 45 8 51
14 15 15 -42 11 -88 -6z"/>
<path d="M5530 3292 c-129 -54 -210 -102 -268 -159 -32 -32 -47 -48 -33 -36
14 11 44 31 66 44 22 12 72 40 110 63 39 22 104 57 145 78 87 43 75 49 -20 10z"/>
<path d="M5580 3009 c-12 -16 -20 -32 -17 -35 2 -3 14 11 25 31 26 43 21 46
-8 4z"/>
<path d="M5540 2940 c-6 -11 -8 -20 -6 -20 3 0 10 9 16 20 6 11 8 20 6 20 -3
0 -10 -9 -16 -20z"/>
<path d="M6657 1483 c-4 -3 -7 -11 -7 -17 0 -6 5 -5 12 2 6 6 9 14 7 17 -3 3
-9 2 -12 -2z"/>
<path d="M6346 1191 c-4 -5 3 -7 14 -4 23 6 26 13 6 13 -8 0 -17 -4 -20 -9z"/>
<path d="M3923 1307 c-3 -6 -1 -7 5 -3 5 3 12 1 14 -6 3 -8 6 -7 10 3 7 17
-19 22 -29 6z"/>
<path d="M3998 1288 c-7 -17 15 -19 29 -3 4 4 3 5 -4 2 -6 -4 -13 -2 -15 5 -3
8 -6 6 -10 -4z"/>
<path d="M1415 778 l-50 -51 43 32 c35 27 72 71 59 71 -1 0 -25 -23 -52 -52z"/>
<path d="M1319 693 c-13 -16 -12 -17 4 -4 16 13 21 21 13 21 -2 0 -10 -8 -17
-17z"/>
<path d="M3110 475 c7 -8 17 -15 22 -15 6 0 5 7 -2 15 -7 8 -17 15 -22 15 -6
0 -5 -7 2 -15z"/>
<path d="M6380 9502 c0 -12 52 -83 79 -107 25 -22 146 -211 209 -325 100 -184
244 -599 343 -995 39 -156 85 -479 106 -740 8 -109 8 -526 0 -670 -9 -164 -80
-658 -113 -790 -26 -103 -104 -359 -131 -430 -29 -75 -41 -125 -31 -125 9 0
68 122 107 223 4 12 13 33 19 47 21 52 32 87 52 170 11 47 27 110 35 140 8 30
23 123 35 205 11 83 30 209 42 280 18 115 21 175 22 520 1 396 -1 441 -29 690
-25 224 -56 394 -100 535 -13 41 -44 145 -70 230 -70 230 -112 350 -173 495
-99 235 -222 464 -303 565 -33 40 -99 95 -99 82z"/>
<path d="M6950 8845 c0 -12 24 -55 32 -55 11 0 10 4 -4 35 -9 21 -28 35 -28
20z"/>
<path d="M7001 8787 c-1 -13 29 -67 38 -67 4 0 13 -10 20 -22 51 -99 340 -408
380 -408 18 0 5 17 -66 88 -49 48 -97 98 -107 112 -43 57 -124 149 -180 206
-34 34 -66 70 -73 80 -6 11 -12 15 -12 11z"/>
<path d="M410 8640 c-6 -11 -8 -20 -6 -20 3 0 10 9 16 20 6 11 8 20 6 20 -3 0
-10 -9 -16 -20z"/>
<path d="M5151 8414 c0 -11 3 -14 6 -6 3 7 2 16 -1 19 -3 4 -6 -2 -5 -13z"/>
<path d="M1770 8050 c-8 -5 -10 -10 -5 -10 6 0 17 5 25 10 8 5 11 10 5 10 -5
0 -17 -5 -25 -10z"/>
<path d="M547 7969 c7 -7 15 -10 18 -7 3 3 -2 9 -12 12 -14 6 -15 5 -6 -5z"/>
<path d="M3030 6472 c0 -16 -9 -37 -20 -47 -26 -24 -25 -33 3 -28 19 4 26 -1
37 -26 10 -25 10 -34 0 -46 -11 -13 -10 -14 2 -10 9 4 32 -5 53 -19 48 -33 97
-46 165 -45 l55 1 -46 8 c-100 17 -193 96 -224 191 -19 56 -25 61 -25 21z"/>
<path d="M1859 4913 c-13 -16 -12 -17 4 -4 9 7 17 15 17 17 0 8 -8 3 -21 -13z"/>
<path d="M1784 4818 l-29 -33 33 29 c17 17 32 31 32 33 0 8 -8 1 -36 -29z"/>
<path d="M8525 3520 c-19 -8 -19 -9 3 -9 12 -1 22 4 22 9 0 6 -1 10 -2 9 -2 0
-12 -4 -23 -9z"/>
<path d="M8528 3493 c6 -2 18 -2 25 0 6 3 1 5 -13 5 -14 0 -19 -2 -12 -5z"/>
<path d="M10310 3485 c0 -5 5 -17 10 -25 5 -8 10 -10 10 -5 0 6 -5 17 -10 25
-5 8 -10 11 -10 5z"/>
<path d="M10330 3435 c0 -5 5 -17 10 -25 5 -8 10 -10 10 -5 0 6 -5 17 -10 25
-5 8 -10 11 -10 5z"/>
<path d="M10356 3370 c4 -14 13 -38 20 -55 11 -24 13 -25 8 -5 -4 14 -13 39
-20 55 -11 24 -13 25 -8 5z"/>
<path d="M10400 3245 c0 -5 5 -17 10 -25 5 -8 10 -10 10 -5 0 6 -5 17 -10 25
-5 8 -10 11 -10 5z"/>
<path d="M10630 2595 c0 -11 5 -27 10 -35 8 -12 10 -12 10 5 0 11 -5 27 -10
35 -8 12 -10 12 -10 -5z"/>
<path d="M1781 686 c-30 -37 -91 -334 -95 -461 l-1 -50 35 0 35 0 14 -87 15
-88 59 0 59 0 -7 68 c-4 37 -11 75 -16 84 -5 9 -9 30 -9 47 0 24 5 32 24 37
46 11 51 52 21 151 -14 48 -30 97 -35 108 -5 11 -22 60 -39 110 -17 49 -34 91
-39 93 -5 1 -15 -4 -21 -12z"/>
<path d="M5232 75 c-57 -29 -113 -57 -125 -61 -15 -5 2 -9 56 -11 66 -3 82 -1
106 17 36 25 41 25 41 0 0 -28 30 -25 31 3 6 82 5 98 0 101 -3 2 -52 -20 -109
-49z"/>
<path d="M5416 34 c-11 -28 -7 -34 24 -34 l31 0 -18 25 c-21 29 -29 31 -37 9z"/>
<path d="M5023 23 c-18 -6 -16 -23 1 -23 17 0 30 16 19 23 -5 2 -14 2 -20 0z"/>
</g>
</svg>
